<svg xmlns="http://www.w3.org/2000/svg" width="108.781" height="47.898" viewBox="0 0 108.781 47.898"><path d="M17.457,13.762l-8.7,15.487L0,13.762V.1H17.457Z" transform="translate(0 -0.079)" fill="#9adbf9"/><path d="M94.2,2.962V.5h7.98V2.962H99.554v8.287H96.846V2.962Z" transform="translate(-74.877 -0.397)" fill="#0097d7"/><path d="M152.308,10.724v.39h-2.974l-1.846-3.364H146.01v3.364H143.2V.365c1.6,0,3.139-.021,4.718,0a3.682,3.682,0,0,1,3.856,3.795,3.8,3.8,0,0,1-1.6,3.139Zm-4.39-5.251a1.227,1.227,0,0,0,1.169-1.354,1.18,1.18,0,0,0-1.169-1.313h-1.949V5.452h1.949Z" transform="translate(-113.825 -0.283)" fill="#0097d7"/><path d="M195.249,9.518l-.615,1.333H191.7v-.39L196.623,0h1.292L202.8,10.462v.39h-2.892l-.636-1.333Zm.9-2.359h2.215l-1.128-2.585Z" transform="translate(-152.376)" fill="#0097d7"/><path d="M260.841,5.449a2.475,2.475,0,0,1,1.333,2.3,3.119,3.119,0,0,1-3.405,3.262H253.6V.3h4.739a3.177,3.177,0,0,1,3.385,3.3,2.382,2.382,0,0,1-.882,1.846M256.41,2.741V4.546h1.744a.8.8,0,0,0,.821-.841.841.841,0,0,0-.821-.944H256.41Zm0,4.062V8.587h2.154a.81.81,0,0,0,.821-.821.953.953,0,0,0-.39-.841,1.044,1.044,0,0,0-.451-.1H256.41Z" transform="translate(-201.579 -0.238)" fill="#0097d7"/><path d="M303.449,9.518l-.615,1.333H299.9v-.39L304.823,0h1.292L311,10.462v.39h-2.892l-.636-1.333Zm.9-2.359h2.215l-1.108-2.585Z" transform="translate(-238.381)" fill="#0097d7"/><path d="M364.61,8.726h3.877v2.523H361.8V.5h2.81Z" transform="translate(-287.583 -0.397)" fill="#0097d7"/><path d="M410.433,11.249V6.941H407.11v4.308H404.3V.5h2.81V4.377h3.323V.5h2.81V11.249Z" transform="translate(-321.365 -0.397)" fill="#0097d7"/><path d="M459.149,9.518l-.615,1.333H455.6v-.39L460.523,0h1.292L466.7,10.462v.39h-2.892l-.636-1.333Zm.9-2.359h2.215l-1.128-2.585Z" transform="translate(-362.142)" fill="#0097d7"/><path d="M518.413,42.449l-.718,2.215h-1.518l.39-1.395a1.37,1.37,0,0,1-1.067-1.354,1.511,1.511,0,0,1,3.015,0,1.453,1.453,0,0,1-.1.533" transform="translate(-409.755 -32.192)" fill="#0097d7"/><path d="M8.821,79.877l2.523-6.831L14.093,66.4h3.364v.472L9.805,85.4H7.733L0,66.872V66.4H3.385l2.728,6.5,2.626,6.974Z" transform="translate(0 -52.779)" fill="#00406b"/><path d="M78.19,80.777l-1.867,3.9H73v-.41L81.841,65.7h1.477l8.8,18.564v.41H88.8l-1.887-3.9Zm1.026-2.646H85.9L82.58,70.6Z" transform="translate(-58.025 -52.223)" fill="#00406b"/><path d="M179.423,65.4c3.733,0,7.61,2.051,8.636,6.3H185c-.964-2.339-3.077-3.405-5.6-3.446-3.9,0-6.5,2.79-6.5,6.81a6.408,6.408,0,0,0,6.5,6.728,5.625,5.625,0,0,0,5.682-3.774h3.077c-.964,4.595-4.882,6.605-8.759,6.605-5.19,0-9.7-3.528-9.7-9.58,0-6.072,4.513-9.641,9.723-9.641" transform="translate(-134.889 -51.984)" fill="#00406b"/><path d="M284.731,82.708v2.523H275.5V82.708h3.015V68.9h-2.79V66.4h8.759v2.5H281.7V82.708Z" transform="translate(-218.986 -52.779)" fill="#00406b"/><path d="M345.613,72.272l.226,5.969v6.831H342.7V66.2h1.149l11.61,12.657-.226-5.744V66.241h3.159V85.093h-1.087Z" transform="translate(-272.401 -52.62)" fill="#00406b"/><path d="M441.49,80.777l-1.867,3.9H436.3v-.41L445.141,65.7h1.477l8.8,18.564v.41h-3.3l-1.887-3.9Zm1.026-2.646H449.2L445.88,70.6Z" transform="translate(-346.801 -52.223)" fill="#00406b"/><path d="M80.344,177.267H76.077v1.682h3.939v2.708H76.077v1.908h4.431v2.81H73V174.6h7.344Z" transform="translate(-58.025 -138.784)" fill="#0097d7"/><path d="M145.251,174c2.421,0,5.087,1.313,5.539,4.451h-2.954a2.428,2.428,0,0,0-2.585-1.682,2.916,2.916,0,0,0-2.954,3.241,3.013,3.013,0,0,0,2.954,3.2,2.445,2.445,0,0,0,2.605-1.867h2.954a5.257,5.257,0,0,1-5.58,4.677A6.01,6.01,0,1,1,145.251,174" transform="translate(-110.646 -138.307)" fill="#0097d7"/><path d="M212.031,185.646A5.762,5.762,0,0,1,206,179.533a6.042,6.042,0,1,1,6.031,6.113m.021-2.913a3.211,3.211,0,0,0,.021-6.4,2.941,2.941,0,0,0-2.995,3.2,2.971,2.971,0,0,0,2.974,3.2" transform="translate(-163.743 -137.83)" fill="#0097d7"/><path d="M281.777,180.064v6.072H278.7V174.3h.964l6.133,5.826v-5.764h3.1v11.816h-.923Z" transform="translate(-221.53 -138.546)" fill="#0097d7"/><path d="M354.351,182.58H350.6v3.795h-3.1V174.6h7.364v2.667H350.6v2.626h3.754Z" transform="translate(-276.217 -138.784)" fill="#0097d7"/><path d="M406.672,183.892v2.482H400.6v-2.482h1.5v-6.81h-1.374V174.6h5.826v2.482h-1.374v6.81Z" transform="translate(-318.424 -138.784)" fill="#0097d7"/><path d="M448.7,184.441l-.677,1.456H444.8v-.41L450.195,174h1.415l5.354,11.487v.431h-3.18l-.7-1.456H448.7Zm.985-2.585h2.441l-1.231-2.851Z" transform="translate(-353.557 -138.307)" fill="#0097d7"/><path d="M514.1,220.038a1.666,1.666,0,1,1,1.662,1.538,1.543,1.543,0,0,1-1.662-1.538" transform="translate(-408.642 -173.679)" fill="#0097d7"/><path d="M41.992,171.867,41.5,173.18V158h.492Z" transform="translate(-32.987 -125.589)" fill="#00406b"/><rect width="1.333" height="3.59" transform="translate(8.082 32.206)" fill="#00406b"/><rect width="0.492" height="13.662" transform="translate(0 0.021)" fill="#00406b"/><rect width="1.949" height="13.6" transform="translate(3.405 0.021)" fill="#fff"/><path d="M18.528,66.4H16.6l5.333,13.477Z" transform="translate(-13.195 -52.779)" fill="#fff"/><rect width="4.226" height="0.533" transform="translate(11.016 0.082)" fill="#00406b"/><rect width="3.241" height="0.41" transform="translate(12.021 5.805)" fill="#00406b"/><rect width="2.605" height="0.328" transform="translate(12.657 1.313)" fill="#00406b"/><rect width="2.605" height="0.328" transform="translate(12.657 2.462)" fill="#00406b"/><rect width="2.605" height="0.328" transform="translate(12.657 3.59)" fill="#00406b"/><rect width="2.605" height="0.328" transform="translate(12.657 4.718)" fill="#00406b"/><rect width="0.492" height="13.662" transform="translate(16.964 0.021)" fill="#00406b"/><rect width="2.605" height="0.328" transform="translate(12.657 10.38)" fill="#00406b"/><rect width="2.605" height="0.328" transform="translate(12.657 9.251)" fill="#00406b"/><rect width="2.605" height="0.328" transform="translate(12.657 8.123)" fill="#00406b"/><rect width="2.605" height="0.328" transform="translate(12.657 6.995)" fill="#00406b"/></svg>
